<?xml version="1.0" standalone="no"?>
<!DOCTYPE svg PUBLIC "-//W3C//DTD SVG 20010904//EN"
 "http://www.w3.org/TR/2001/REC-SVG-20010904/DTD/svg10.dtd">
<svg version="1.0" xmlns="http://www.w3.org/2000/svg"
 width="1350.000000pt" height="1350.000000pt" viewBox="0 0 1350.000000 1350.000000"
 preserveAspectRatio="xMidYMid meet">
<metadata>
Created by potrace 1.14, written by Peter Selinger 2001-2017
</metadata>
<g transform="translate(0.000000,1350.000000) scale(0.100000,-0.100000)"
fill="#000000" stroke="none">
<path d="M16 13482 c-13 -16 -17 -31 -13 -59 31 -233 31 -232 13 -311 -14 -62
-17 -116 -14 -271 l3 -194 33 28 c40 34 62 74 62 115 0 44 31 99 84 148 55 51
76 52 155 12 61 -30 71 -43 71 -90 0 -16 5 -32 10 -35 13 -8 118 30 265 95
126 57 207 88 354 136 115 37 202 44 249 20 39 -20 187 -177 211 -223 11 -22
31 -82 44 -134 35 -133 94 -339 106 -372 16 -42 53 -357 48 -410 l-4 -47 99
-102 c54 -56 107 -121 118 -144 24 -48 81 -313 100 -456 7 -55 10 -124 6 -161
-6 -53 -4 -67 12 -87 11 -14 23 -41 27 -60 4 -19 11 -40 16 -45 4 -6 22 -39
39 -73 24 -49 35 -94 55 -229 14 -93 37 -215 51 -273 14 -58 28 -116 30 -130
2 -14 9 -47 14 -73 24 -116 4 -350 -36 -428 -14 -28 -85 -84 -144 -114 -19
-10 -59 -34 -88 -53 -51 -33 -209 -98 -357 -147 -94 -30 -125 -46 -125 -62 0
-17 0 -17 90 6 194 49 308 86 372 121 116 63 172 90 204 96 21 4 59 18 83 31
24 12 49 23 56 23 22 0 73 113 89 199 29 152 26 176 -58 444 -29 94 -55 206
-71 305 -14 87 -39 212 -57 280 -29 114 -30 128 -22 210 9 83 7 95 -30 247
-77 321 -154 528 -221 599 -19 21 -35 42 -35 48 0 5 -8 22 -19 36 -10 15 -26
50 -36 77 -11 28 -26 61 -34 74 -11 18 -16 54 -17 130 0 83 -5 116 -21 151
-11 25 -23 58 -27 73 -4 16 -27 73 -51 127 -24 54 -54 129 -65 167 -35 112
-62 165 -117 225 -60 65 -83 106 -83 145 0 22 22 50 113 139 63 62 131 121
153 132 82 41 143 55 218 49 80 -6 253 -33 306 -47 52 -14 161 -109 216 -187
26 -37 71 -100 99 -138 67 -91 75 -108 120 -240 46 -138 52 -199 30 -288 -11
-43 -14 -72 -8 -78 5 -5 74 -32 154 -60 152 -53 231 -97 273 -151 40 -53 85
-158 102 -239 31 -143 2 -458 -49 -546 -60 -104 -76 -113 -202 -113 -70 0
-107 -4 -120 -14 -18 -13 -17 -17 25 -90 24 -43 64 -101 89 -129 55 -65 65
-89 97 -235 37 -163 44 -384 19 -563 -22 -150 -16 -215 35 -366 16 -51 30
-113 30 -138 0 -25 -19 -112 -41 -193 -23 -81 -48 -169 -55 -195 -15 -55 -104
-248 -149 -322 -46 -78 -176 -235 -188 -228 -6 4 -8 0 -4 -10 8 -21 0 -21 -34
-3 -14 7 -49 19 -77 25 -28 7 -53 19 -56 27 -3 8 -15 14 -26 14 -33 0 -42 43
-37 170 5 105 18 190 46 295 23 88 5 196 -25 147 -40 -64 -68 -124 -88 -186
-18 -56 -30 -76 -56 -94 -50 -34 -189 -73 -335 -93 -71 -10 -155 -23 -185 -29
-30 -6 -98 -10 -150 -11 -55 0 -120 -6 -155 -16 -33 -8 -89 -19 -125 -23 -61
-7 -199 -31 -370 -65 -41 -8 -131 -23 -200 -34 -164 -26 -269 -48 -284 -60 -7
-6 -25 -8 -42 -6 -16 3 -45 8 -64 11 -81 13 -113 28 -192 90 -46 36 -87 72
-91 80 -11 20 -37 18 -37 -3 0 -10 10 -38 21 -63 12 -25 29 -74 39 -110 10
-36 30 -105 44 -155 14 -49 26 -103 26 -119 0 -16 11 -84 25 -152 14 -67 27
-169 29 -226 3 -87 8 -111 30 -153 14 -27 26 -58 26 -67 0 -11 8 -18 19 -18
10 0 25 -7 32 -17 8 -9 33 -25 57 -35 23 -10 42 -22 42 -26 0 -4 12 -21 28
-38 27 -32 27 -32 159 -38 136 -7 283 -27 343 -46 19 -6 85 -13 145 -16 122
-7 188 -19 183 -36 -2 -6 -51 -27 -108 -47 -84 -29 -111 -44 -142 -76 -21 -22
-41 -52 -44 -67 -4 -14 -15 -28 -25 -31 -16 -4 -19 -15 -19 -59 0 -37 -3 -49
-10 -38 -6 10 -7 2 -3 -25 3 -22 10 -41 15 -43 11 -5 10 -49 -2 -57 -13 -8
-12 -77 1 -135 5 -25 23 -62 40 -82 18 -24 35 -61 44 -100 23 -106 55 -319 49
-329 -3 -5 -1 -9 5 -9 6 0 13 -17 16 -37 4 -21 15 -50 26 -65 11 -16 19 -44
19 -67 0 -22 5 -43 10 -46 6 -3 10 -29 10 -57 0 -41 3 -51 20 -55 13 -3 20
-14 20 -28 0 -13 7 -36 15 -51 8 -16 15 -52 15 -81 0 -28 5 -55 10 -58 6 -3
10 -17 10 -29 0 -13 12 -41 26 -62 15 -22 29 -59 32 -84 3 -25 16 -62 29 -82
13 -21 20 -38 17 -38 -4 0 1 -9 11 -20 10 -11 26 -20 36 -20 13 0 21 -12 29
-39 6 -22 16 -42 23 -44 8 -3 6 -10 -8 -20 -25 -20 -142 -19 -150 1 -2 6 -10
12 -17 12 -7 0 -26 7 -43 16 -16 9 -42 17 -57 18 -16 2 -39 3 -52 4 -19 2 -25
9 -28 30 -3 25 -7 27 -54 30 l-52 3 -4 47 c-3 35 -13 56 -36 82 -18 19 -32 42
-32 51 0 9 -6 22 -14 28 -8 7 -17 35 -21 64 -4 29 -13 62 -21 74 -8 12 -14 31
-14 41 0 34 -77 212 -92 212 -4 0 -8 10 -8 23 0 13 -3 27 -7 31 -9 9 -31 127
-32 173 -1 18 -7 36 -14 40 -13 8 -37 115 -37 163 0 12 -6 36 -14 53 -7 18
-21 48 -29 68 -9 19 -28 41 -42 49 -14 7 -25 17 -25 21 0 4 -15 12 -33 18 -21
7 -39 23 -49 44 -22 43 -38 145 -38 245 0 45 -4 91 -9 104 -6 13 -12 39 -16
59 -3 21 -17 53 -30 73 -14 20 -25 45 -25 55 0 15 -8 19 -35 19 -19 0 -38 -5
-43 -11 -18 -23 -24 -95 -23 -275 l0 -183 36 -87 c20 -48 52 -135 71 -194 19
-60 38 -108 42 -108 9 0 42 -102 42 -131 0 -11 6 -30 14 -42 7 -12 17 -42 20
-67 4 -24 19 -65 35 -90 37 -61 42 -74 56 -162 10 -56 11 -97 4 -150 -14 -104
0 -184 54 -310 18 -42 19 -54 9 -100 -16 -74 -16 -102 2 -191 19 -93 22 -99
99 -200 44 -58 89 -100 178 -167 65 -49 133 -96 149 -105 19 -10 103 -23 227
-35 170 -17 317 -40 518 -80 95 -19 236 -70 293 -105 74 -45 177 -69 260 -61
116 12 318 98 450 191 91 64 107 62 195 -28 41 -42 85 -99 102 -132 17 -33 64
-115 105 -183 41 -68 91 -151 110 -185 49 -86 85 -138 219 -317 88 -117 165
-203 316 -355 110 -110 229 -222 265 -248 36 -26 106 -79 155 -118 171 -132
317 -236 421 -300 58 -35 153 -95 212 -132 59 -38 215 -122 347 -188 224 -112
320 -150 675 -274 105 -36 418 -107 550 -125 47 -6 139 -20 204 -30 65 -11
180 -22 255 -25 75 -4 194 -13 264 -22 141 -17 224 -14 627 29 273 28 430 35
431 17 0 -8 0 -115 0 -239 -2 -279 5 -326 56 -384 21 -24 67 -97 103 -162 35
-66 85 -150 110 -189 26 -38 51 -81 55 -95 14 -46 58 -122 77 -133 11 -7 33
-37 51 -67 17 -30 37 -61 44 -68 13 -14 18 -32 7 -32 -3 0 -27 7 -55 16 -33
11 -73 38 -120 80 -39 35 -79 64 -88 64 -9 0 -38 13 -66 29 -58 33 -103 100
-141 209 -59 165 -76 180 -135 114 -51 -58 -72 -131 -72 -261 -1 -94 2 -112
25 -163 32 -69 104 -148 166 -183 25 -14 97 -41 161 -61 64 -20 137 -47 162
-60 26 -13 68 -28 95 -35 27 -7 60 -18 74 -25 39 -19 130 -110 130 -130 0 -9
-24 -40 -53 -68 -102 -97 -167 -259 -167 -415 l0 -71 1801 0 c1436 0 1800 3
1797 13 -3 6 -22 21 -44 33 -69 36 -54 47 103 71 79 12 189 31 245 42 57 11
123 23 148 26 108 14 281 60 345 90 57 27 89 53 163 129 122 126 155 193 157
319 1 48 5 90 8 94 4 3 7 921 7 2039 l0 2033 -32 3 -33 3 -1 217 0 217 25 3
c35 4 39 25 40 221 l1 167 -27 -6 c-88 -21 -306 -91 -362 -116 -136 -62 -252
-86 -264 -53 -7 17 12 75 81 240 89 216 168 478 196 650 46 279 47 779 2 1217
-32 317 -55 453 -122 718 -109 433 -150 555 -309 925 -19 46 -167 340 -194
388 -54 94 -335 548 -426 687 -211 322 -333 475 -570 719 -147 151 -188 187
-375 330 -168 128 -259 187 -368 238 -136 62 -165 79 -248 138 -150 108 -547
323 -734 399 -52 21 -142 60 -200 86 -58 27 -161 70 -230 95 -69 25 -138 52
-155 60 -16 8 -68 26 -115 41 -47 14 -101 31 -120 39 -84 31 -415 107 -595
136 -107 17 -190 22 -470 26 -320 5 -353 3 -570 -21 -367 -42 -647 -95 -1109
-210 -304 -76 -409 -111 -594 -194 -178 -81 -465 -244 -592 -338 -36 -27 -144
-105 -240 -174 -97 -69 -211 -153 -255 -187 -44 -34 -108 -81 -141 -105 -276
-194 -642 -539 -764 -718 -13 -19 -43 -56 -67 -82 -62 -67 -118 -159 -132
-215 -39 -152 -56 -206 -89 -272 -20 -41 -41 -74 -47 -75 -17 -2 -18 112 -1
146 9 17 16 35 16 40 0 5 9 28 21 51 18 38 19 49 10 117 -35 257 -45 379 -45
550 1 187 5 217 52 390 9 34 16 120 19 225 4 155 2 180 -21 286 -47 215 -90
296 -296 553 -166 207 -189 239 -245 336 -108 188 -283 386 -455 513 -132 99
-170 115 -307 133 -80 10 -125 21 -144 35 -18 13 -43 19 -76 19 -69 -1 -240
-72 -347 -146 -161 -111 -178 -119 -328 -158 -153 -41 -460 -145 -570 -194
-63 -29 -87 -36 -115 -33 -15 1 -79 136 -103 219 -27 95 -66 199 -84 227 -8
13 -43 40 -77 61 -78 47 -153 58 -183 26z m8444 -961 c114 -8 159 -15 210 -34
38 -15 118 -32 193 -41 138 -18 167 -26 194 -53 10 -10 34 -25 53 -34 123 -59
226 -102 300 -128 47 -16 169 -70 271 -120 102 -50 190 -91 195 -91 5 0 38
-20 74 -45 99 -68 133 -90 290 -182 80 -47 156 -94 170 -105 14 -10 75 -51
135 -91 80 -53 111 -78 113 -95 4 -27 -61 -140 -117 -204 -21 -24 -43 -52 -49
-64 -6 -11 -29 -26 -51 -33 -22 -6 -53 -22 -68 -35 -15 -13 -77 -60 -138 -105
-138 -103 -198 -160 -246 -234 -53 -82 -67 -134 -76 -282 l-8 -129 -41 -29
c-30 -21 -57 -30 -101 -34 -75 -7 -125 14 -204 83 -153 132 -265 154 -262 50
2 -76 83 -168 243 -276 144 -97 134 -75 136 -326 2 -190 0 -217 -16 -236 -24
-30 -70 -27 -165 11 -166 67 -253 93 -385 113 -181 26 -240 18 -240 -37 0 -23
-5 -20 251 -138 42 -19 107 -57 145 -85 38 -27 112 -73 164 -102 52 -29 107
-64 123 -78 17 -16 31 -22 36 -16 5 5 16 56 24 113 11 73 21 109 34 121 10 10
74 44 143 75 158 73 214 80 309 41 45 -19 108 -33 213 -47 141 -18 154 -19
199 -4 55 19 57 24 34 102 -16 54 -38 82 -50 63 -3 -6 -25 -20 -48 -32 -33
-18 -59 -22 -127 -22 -48 -1 -103 5 -125 13 -44 15 -197 157 -266 248 -35 45
-41 59 -46 122 -5 57 -3 75 11 97 17 25 110 74 142 74 9 0 50 -32 92 -71 59
-54 103 -84 185 -125 122 -60 174 -71 246 -54 97 23 176 95 125 114 -9 3 -57
6 -108 6 -85 0 -99 3 -155 32 -38 19 -96 66 -155 122 -100 97 -118 133 -96
190 11 31 -3 35 -23 6 -25 -36 -138 -120 -160 -120 -40 0 -50 14 -42 56 9 48
27 86 75 150 21 28 57 88 80 135 61 121 184 240 346 335 l119 69 115 -1 c127
-1 233 -26 360 -86 113 -53 258 -143 310 -191 8 -8 30 -22 47 -31 116 -59 286
-201 362 -301 62 -83 181 -252 181 -258 0 -8 101 -174 168 -277 127 -194 319
-586 397 -810 18 -52 47 -129 65 -170 17 -41 36 -86 41 -100 30 -84 152 -630
184 -825 8 -49 20 -112 25 -140 19 -95 39 -301 51 -515 20 -351 -1 -812 -51
-1140 -11 -74 -30 -193 -40 -265 -11 -71 -25 -148 -31 -170 -5 -22 -15 -58
-20 -80 -5 -22 -18 -58 -28 -80 -10 -22 -25 -61 -32 -87 -7 -27 -16 -48 -20
-48 -3 0 -14 -21 -24 -47 -9 -27 -26 -55 -36 -65 -10 -9 -19 -22 -19 -30 0 -8
-4 -18 -9 -24 -6 -5 -28 -43 -49 -85 -43 -80 -64 -113 -153 -230 -101 -133
-152 -172 -430 -330 -192 -109 -459 -243 -536 -268 -34 -12 -79 -21 -99 -21
-24 0 -52 -10 -83 -31 -46 -32 -75 -48 -291 -162 -63 -33 -146 -81 -185 -107
-111 -74 -147 -83 -273 -75 l-108 7 -71 -37 c-79 -41 -88 -54 -99 -150 -8 -75
-41 -163 -74 -201 -45 -51 -197 -168 -345 -267 -38 -25 -108 -73 -155 -106
-47 -33 -123 -84 -170 -113 -220 -135 -562 -370 -633 -434 -20 -17 -130 -74
-144 -74 -7 0 -13 -3 -13 -8 0 -7 -13 -15 -75 -46 -16 -8 -45 -28 -63 -45 -36
-34 -63 -39 -82 -16 -38 46 -225 77 -411 68 l-115 -6 -17 27 c-10 14 -14 26
-10 26 4 0 -6 14 -23 31 -42 45 -115 79 -166 79 -60 -1 -196 -32 -238 -55 -19
-10 -60 -20 -91 -22 -66 -5 -85 8 -94 65 -3 20 -8 48 -11 62 -7 33 -122 145
-170 165 -55 23 -166 45 -193 38 -14 -4 -32 -28 -56 -77 -32 -68 -56 -96 -101
-122 -10 -6 -25 -22 -31 -35 -7 -13 -13 -20 -13 -15 0 6 -6 1 -14 -9 -7 -10
-20 -16 -29 -12 -11 4 -17 28 -21 99 -4 51 -5 106 -4 121 3 25 -5 35 -55 70
-31 23 -72 62 -89 86 -50 69 -190 125 -226 89 -35 -35 5 -129 98 -228 37 -39
60 -87 60 -122 -1 -49 -69 -96 -117 -81 -32 10 -73 80 -73 124 0 30 -47 109
-64 109 -15 0 -87 40 -118 65 -39 32 -75 103 -99 195 -12 47 -27 97 -35 111
-19 38 -59 60 -117 66 -43 4 -57 1 -79 -17 -31 -24 -35 -42 -15 -62 26 -26 38
-59 44 -122 6 -67 -6 -96 -40 -96 -28 0 -47 -12 -47 -30 0 -80 -211 -44 -310
53 -42 41 -56 71 -64 137 -4 30 -14 65 -22 78 -26 40 -100 24 -154 -34 l-25
-27 -3 23 c-2 13 4 75 13 139 19 128 16 167 -21 267 -31 85 -58 116 -99 112
-36 -4 -38 -9 -60 -183 -9 -71 -17 -142 -19 -156 -10 -74 -39 -83 -147 -48
-145 47 -239 143 -184 189 8 7 15 21 15 32 0 11 20 47 44 81 24 34 46 71 50
82 8 26 -26 82 -60 97 -30 14 -39 5 -130 -130 -30 -45 -60 -82 -66 -82 -7 0
-30 9 -53 20 -44 21 -63 52 -84 133 -5 21 -23 53 -39 71 -35 41 -48 107 -32
167 15 55 90 130 148 147 81 24 58 74 -40 87 -29 4 -56 12 -59 17 -12 18 13
88 38 108 27 21 38 19 96 -17 20 -13 37 -19 37 -13 0 18 -40 90 -96 176 -58
89 -67 95 -184 119 -41 9 -94 23 -117 31 -40 15 -80 15 -130 -1 -17 -6 -22 -2
-28 22 -3 15 -31 71 -60 123 -30 52 -67 120 -84 151 -66 124 -200 183 -216 96
-7 -34 19 -104 101 -277 60 -125 92 -169 143 -193 28 -14 47 -30 49 -42 7 -47
55 -222 68 -246 11 -21 11 -29 1 -43 -12 -16 -16 -15 -53 12 -47 35 -78 72
-168 207 -37 55 -85 125 -107 155 -22 30 -61 85 -86 122 -28 42 -53 68 -64 68
-16 0 -16 -4 7 -56 14 -32 24 -68 22 -82 -3 -24 -7 -21 -48 34 -53 70 -107
160 -136 229 -122 283 -184 442 -223 575 -13 41 -29 96 -37 121 -15 47 -68
287 -168 759 -31 143 -60 356 -76 545 -6 72 -15 177 -20 235 -12 125 -12 381
0 465 14 101 30 282 39 460 11 199 19 227 132 426 93 165 255 496 312 640 49
121 68 193 88 319 14 94 30 134 68 165 20 18 33 41 41 78 19 80 149 330 255
488 124 184 163 232 238 295 102 85 258 242 353 357 50 60 129 140 179 181 50
40 132 112 183 159 55 51 117 98 155 117 34 17 90 52 124 78 118 90 301 196
418 242 44 17 130 55 190 84 113 54 144 63 298 91 141 25 227 66 227 106 0 11
-66 47 -110 60 -50 15 -43 24 35 43 33 8 144 44 246 79 187 65 215 72 499 127
253 48 497 72 885 86 99 3 239 12 310 19 133 14 310 13 585 -4z m-6857 -3670
c56 -21 59 -112 8 -207 -56 -103 -76 -120 -195 -158 -63 -21 -98 -26 -178 -26
-55 0 -108 4 -118 10 -37 20 -90 145 -90 215 0 45 23 70 95 104 76 36 178 59
295 67 47 4 87 8 89 10 6 6 63 -3 94 -15z m352 -269 c33 -11 78 -27 99 -37 44
-19 101 -14 110 10 3 8 15 15 26 15 58 0 80 -48 56 -117 -21 -60 -50 -96 -120
-147 -34 -25 -77 -63 -97 -84 -19 -21 -51 -45 -70 -54 -138 -65 -157 -72 -197
-71 -66 2 -102 22 -104 58 -1 16 -2 39 -3 50 -2 32 -13 43 -59 65 -29 13 -47
29 -56 49 -12 29 -42 52 -37 28 3 -16 -25 -16 -30 1 -3 6 2 12 10 12 33 0 76
50 92 108 18 61 74 126 117 136 46 10 204 -4 263 -22z m-1239 -102 c12 0 27
-6 33 -14 15 -17 27 -196 14 -196 -20 0 -44 39 -74 120 -29 81 -32 127 -7 102
7 -7 22 -12 34 -12z m69 -240 c3 -5 2 -10 -4 -10 -5 0 -13 5 -16 10 -3 6 -2
10 4 10 5 0 13 -4 16 -10z m1694 -32 c4 -13 5 -54 2 -91 -5 -55 -11 -72 -29
-86 -22 -16 -55 -113 -67 -196 -9 -62 -17 -80 -55 -124 -32 -39 -140 -214
-140 -228 0 -18 -147 -294 -169 -318 -16 -16 -37 -46 -46 -65 -10 -19 -29 -49
-41 -66 -13 -17 -24 -36 -24 -42 0 -7 -4 -12 -9 -12 -5 0 -14 -14 -21 -30 -7
-17 -18 -34 -24 -38 -19 -12 -104 -121 -111 -142 -4 -11 -11 -20 -16 -20 -5 0
-9 -16 -9 -36 0 -19 -5 -45 -12 -57 -6 -12 -21 -58 -34 -102 -12 -44 -38 -125
-58 -180 -54 -153 -47 -245 21 -245 27 0 37 20 48 97 4 29 11 55 16 59 5 3 9
13 9 23 0 10 7 24 16 32 9 7 34 51 57 98 22 47 52 104 66 126 14 22 43 81 66
130 39 85 122 228 155 265 15 17 25 32 61 86 11 18 35 42 54 55 18 13 32 26
30 30 -3 3 7 12 20 19 14 7 25 17 25 22 0 4 7 8 15 8 28 0 36 -45 20 -107 -8
-32 -15 -68 -15 -81 0 -12 -11 -35 -25 -50 -14 -15 -25 -39 -25 -54 0 -15 -5
-30 -11 -34 -6 -3 -19 -25 -28 -48 -10 -22 -34 -60 -54 -83 -28 -34 -38 -58
-48 -114 -11 -64 -16 -73 -54 -105 -23 -19 -51 -34 -62 -34 -25 0 -37 -24 -34
-67 2 -24 -2 -33 -13 -33 -28 0 -21 -107 10 -166 15 -27 38 -71 51 -99 13 -27
29 -59 35 -70 85 -150 119 -261 103 -341 -8 -43 -20 -49 -124 -63 -114 -15
-134 -14 -160 8 -12 10 -37 22 -55 25 -18 4 -41 15 -51 26 -10 11 -26 20 -37
20 -12 0 -18 7 -18 24 0 26 -20 39 -45 30 -8 -4 -15 -2 -15 4 0 5 14 12 30 16
29 5 30 8 30 55 0 27 -5 53 -10 56 -13 8 -75 132 -84 167 -3 14 -26 48 -50 74
-28 30 -54 71 -67 108 -13 34 -36 76 -52 95 -16 19 -36 49 -43 67 -16 39 -19
110 -4 119 6 3 10 28 10 55 0 27 4 51 9 54 15 10 33 183 25 239 -5 28 -9 86
-9 127 0 60 -3 75 -15 75 -13 0 -15 21 -12 135 1 74 6 137 11 140 5 3 11 31
15 63 5 39 15 67 32 86 13 16 24 36 24 44 0 19 61 28 185 26 192 -2 195 -2
195 25 0 19 6 25 27 28 24 3 26 7 28 48 0 25 2 73 3 107 l2 62 34 -6 c30 -5
36 -2 49 23 8 16 18 28 21 27 21 -10 38 -1 33 16 -4 15 3 24 28 35 18 9 41 16
50 16 23 0 55 19 55 32 0 6 47 57 104 114 56 56 106 109 109 118 4 11 19 16
47 16 33 0 42 -4 49 -22z m-1054 -469 c-7 -10 -35 -1 -35 11 0 5 9 6 20 3 11
-3 17 -9 15 -14z m-625 -1709 c0 -6 11 -22 24 -35 13 -13 30 -41 37 -62 8 -24
37 -61 85 -107 41 -38 74 -77 74 -86 0 -22 29 -80 40 -80 4 0 11 -12 14 -26
11 -41 46 -83 77 -89 16 -4 31 -15 34 -26 5 -13 43 -38 108 -71 92 -45 106
-49 147 -43 59 9 89 9 253 3 75 -4 139 -3 142 2 5 8 148 19 285 21 94 1 95 2
127 35 32 33 36 34 107 34 64 0 74 2 79 19 3 12 15 21 33 23 24 2 28 7 26 26
-2 13 3 25 12 28 12 5 16 22 16 74 0 48 4 71 15 80 8 7 15 25 15 41 0 15 5 31
11 35 6 3 9 14 6 24 -3 11 1 21 8 24 17 6 25 -3 25 -28 0 -12 9 -25 23 -31 12
-6 23 -20 25 -33 2 -12 8 -20 13 -17 5 4 9 -39 9 -105 0 -112 -6 -136 -51
-208 -16 -27 -116 -132 -125 -132 -3 0 -31 -22 -63 -50 -32 -27 -67 -50 -79
-50 -12 0 -42 -5 -67 -12 -45 -12 -50 -19 -58 -73 -5 -40 -16 -45 -92 -45 -41
0 -76 4 -79 9 -4 5 -26 9 -49 9 -27 0 -57 9 -78 21 -19 12 -46 21 -61 21 -15
0 -39 5 -53 12 -18 8 -31 8 -48 0 -60 -29 -340 13 -472 71 -252 112 -371 183
-450 268 -87 95 -83 78 -77 322 4 173 8 217 18 217 8 0 14 -5 14 -10z m3304
-1250 c32 -12 56 -58 56 -109 0 -45 -50 -183 -77 -213 -46 -51 -125 -64 -161
-25 -19 20 -20 28 -12 82 20 141 39 192 87 236 42 39 65 45 107 29z m8548 -35
c37 -17 70 -37 73 -45 4 -8 8 -43 11 -77 4 -57 2 -64 -20 -78 -13 -9 -30 -15
-38 -14 -39 5 -58 -3 -77 -35 -17 -27 -19 -39 -11 -61 5 -14 10 -51 10 -80 0
-43 7 -65 31 -107 30 -51 31 -57 26 -136 -3 -56 -10 -89 -21 -101 -9 -10 -16
-25 -16 -33 0 -9 -7 -18 -15 -22 -18 -7 -19 -35 -1 -58 15 -21 65 -24 67 -5 1
6 5 -19 10 -58 4 -38 4 -74 0 -80 -5 -5 -11 -27 -15 -47 -4 -21 -10 -38 -15
-38 -4 0 -13 -11 -19 -25 -9 -19 -19 -25 -43 -25 -27 0 -30 2 -18 16 10 13 10
17 -1 24 -8 5 -17 7 -20 5 -3 -2 -4 37 -4 86 1 97 -2 102 -55 74 -25 -13 -29
-21 -35 -80 -7 -68 -7 -69 38 -150 20 -37 20 -69 1 -85 -8 -7 -15 -16 -15 -20
0 -4 -61 -69 -135 -144 -146 -147 -139 -144 -209 -109 -21 11 -46 13 -95 8
-96 -9 -301 -12 -306 -4 -13 21 -7 100 9 118 16 18 17 33 7 202 -6 100 -11
220 -11 267 0 74 2 84 19 89 15 4 20 18 26 79 6 69 8 74 30 74 18 0 24 6 27
28 2 21 9 28 31 30 21 3 27 9 27 28 0 22 4 24 50 24 42 0 50 3 50 19 0 21 16
37 45 44 19 4 19 5 -1 6 -12 0 -27 7 -33 15 -16 19 -117 34 -291 41 -79 3
-146 8 -148 10 -12 11 13 45 41 55 48 17 136 40 155 40 29 0 176 49 202 68 14
10 40 24 58 31 17 8 32 18 32 23 0 5 16 16 35 24 19 8 41 23 47 34 7 11 22 20
33 20 26 0 39 10 54 37 7 14 25 25 46 29 32 6 50 24 23 24 -24 0 27 41 63 50
21 6 41 15 44 20 3 5 45 8 93 7 72 -2 99 -8 154 -32z m105 -112 c-3 -10 -5 -4
-5 12 0 17 2 24 5 18 2 -7 2 -21 0 -30z m-1421 -608 c32 -66 36 -81 30 -122
-3 -26 -10 -49 -14 -52 -5 -4 -15 -41 -22 -84 -7 -43 -17 -80 -21 -83 -5 -3
-9 -16 -9 -30 0 -14 -5 -34 -10 -45 -6 -10 -15 -40 -20 -66 -37 -179 -42 -223
-46 -413 -5 -201 -6 -206 -33 -255 -16 -28 -41 -56 -57 -64 -27 -14 -33 -12
-106 27 -43 23 -84 42 -91 42 -6 0 -25 7 -42 16 -16 9 -58 27 -92 41 -72 29
-98 58 -150 171 -39 85 -41 102 -29 325 9 176 51 286 160 417 108 129 326 249
453 250 l62 0 37 -75z m1639 -17 c33 -15 52 -60 60 -141 3 -34 8 -77 11 -94 7
-46 -9 -41 -40 12 -15 25 -40 55 -57 67 -62 46 -110 148 -76 161 23 10 76 7
102 -5z m-2715 -475 c0 -58 -21 -177 -35 -193 -7 -8 -15 -27 -19 -42 -6 -26
-9 -27 -49 -22 -23 3 -53 9 -67 14 -14 5 -46 11 -72 15 -34 4 -48 11 -48 22 0
9 6 13 13 10 11 -4 13 5 9 42 -4 47 -4 47 49 88 97 73 164 120 179 125 21 8
40 -20 40 -59z m-5411 -89 c2 -2 -2 -15 -9 -29 -11 -20 -16 -23 -34 -13 -38
19 -58 41 -45 49 11 7 78 1 88 -7z m8041 -160 c36 -9 76 -25 89 -35 18 -15 40
-19 96 -19 l73 0 4 -51 3 -51 -35 6 c-19 3 -43 6 -52 6 -12 0 -18 8 -18 25 0
29 14 27 -185 29 -92 1 -158 6 -170 13 -11 7 -46 15 -77 18 -60 7 -81 25 -28
25 25 0 29 4 27 23 -1 13 3 21 11 20 6 -2 12 2 12 9 0 15 165 4 250 -18z
m-720 -210 c68 -11 100 -21 112 -35 9 -10 23 -19 32 -19 12 0 16 -10 16 -43
l0 -44 -47 -9 c-54 -10 -60 -22 -62 -111 -1 -40 -5 -53 -16 -53 -9 0 -15 -9
-15 -24 0 -56 -12 -86 -35 -86 -26 0 -35 -34 -35 -135 0 -33 -3 -77 -6 -97 -6
-36 -8 -38 -55 -44 -43 -6 -49 -9 -49 -30 0 -22 -4 -24 -50 -24 -49 0 -50 -1
-50 -30 0 -26 -5 -31 -30 -36 -23 -5 -30 -12 -30 -30 0 -19 -5 -24 -25 -24
-16 0 -25 -6 -25 -15 0 -10 -10 -15 -30 -15 -35 0 -40 -17 -7 -23 12 -2 -22
-5 -76 -6 l-98 -1 -15 35 c-10 26 -20 35 -38 35 -19 0 -22 4 -18 25 4 21 1 25
-21 25 -27 0 -32 14 -44 110 -3 25 -9 49 -14 55 -12 12 -11 49 1 61 7 7 8 30
2 70 -11 69 -1 226 17 268 16 38 65 94 110 124 20 13 38 28 39 33 2 5 9 9 17
9 7 0 18 7 26 16 18 22 106 65 164 80 60 15 215 10 355 -12z m-6270 -67 c25
-46 25 -49 -2 -45 -20 3 -68 59 -68 80 0 5 11 7 25 5 17 -2 32 -15 45 -40z
m4765 -112 c39 -16 75 -32 80 -36 6 -4 62 -33 125 -64 181 -91 206 -118 234
-251 22 -108 42 -362 30 -382 -15 -24 -49 -39 -130 -55 -70 -15 -140 -10 -182
12 -39 20 -386 39 -397 21 -4 -6 -28 -10 -55 -10 -27 0 -52 -4 -55 -10 -3 -5
-26 -10 -50 -10 -24 0 -47 -4 -50 -10 -3 -5 -19 -10 -34 -10 -16 0 -34 -7 -41
-15 -7 -8 -31 -23 -54 -34 -23 -10 -69 -44 -103 -75 -52 -48 -63 -64 -72 -107
-16 -74 -13 -117 11 -171 17 -38 34 -56 82 -86 106 -67 178 -109 274 -157 50
-27 92 -53 92 -60 0 -7 7 -18 15 -25 21 -17 19 -40 -4 -40 -10 0 -30 -9 -44
-20 -14 -11 -33 -20 -42 -20 -9 0 -26 -5 -37 -11 -15 -8 -32 -8 -67 2 -66 18
-158 66 -171 89 -6 10 -43 41 -82 67 -39 26 -85 57 -102 69 -35 23 -187 84
-210 84 -8 0 -18 5 -21 10 -3 6 -26 10 -51 10 -37 0 -44 -3 -44 -19 0 -11 -4
-23 -10 -26 -5 -3 -10 -17 -10 -31 0 -22 -4 -24 -49 -24 -47 0 -50 2 -53 28
-2 19 -9 27 -23 27 -13 0 -21 8 -23 22 -2 12 -10 27 -18 33 -8 7 -14 21 -14
31 0 11 -7 19 -15 19 -8 0 -15 8 -15 18 0 9 -12 35 -25 57 -15 23 -25 55 -25
77 0 20 -4 40 -10 43 -6 4 -10 76 -10 183 0 164 2 183 26 262 15 47 32 92 39
100 7 8 23 35 36 60 24 46 97 130 113 130 4 0 17 11 27 24 11 14 59 48 107 76
100 59 156 97 160 111 2 5 8 9 13 9 5 0 48 19 96 41 111 52 157 59 222 30 72
-31 87 -29 206 23 17 8 37 16 45 20 8 3 78 4 155 2 126 -3 147 -6 210 -31z
m2707 -550 c-2 -14 -10 -25 -18 -25 -7 0 -19 -12 -26 -27 -7 -15 -22 -29 -32
-31 -11 -2 -24 -8 -30 -13 -53 -43 -80 -59 -136 -83 -80 -34 -189 -84 -212
-97 -25 -13 -101 -39 -115 -39 -43 0 32 98 88 115 13 4 31 13 39 20 13 12 100
56 340 173 82 40 109 42 102 7z m-1554 -292 c-16 -2 -28 -11 -28 -19 0 -8 -10
-14 -25 -14 -15 0 -25 6 -25 14 0 8 -12 17 -27 19 -16 2 8 4 52 4 44 0 68 -2
53 -4z m1515 -901 c13 -3 8 -88 -8 -126 -11 -26 -21 -36 -38 -36 -28 0 -47 17
-47 43 0 10 -13 30 -30 44 -16 13 -30 30 -30 37 0 28 91 50 153 38z"/>
<path d="M5245 11673 c-58 -15 -322 -107 -332 -116 -36 -28 13 -35 122 -17 99
16 191 -7 290 -75 52 -34 93 -40 160 -21 41 12 59 23 67 41 18 40 -3 69 -97
131 -73 49 -93 58 -138 60 -29 2 -61 0 -72 -3z"/>
<path d="M4840 11457 c-31 -16 -70 -73 -70 -104 0 -77 63 -147 195 -217 103
-55 151 -67 185 -46 12 8 12 13 -2 42 -30 64 -229 307 -267 328 -11 5 -26 4
-41 -3z"/>
<path d="M4612 11115 c-18 -8 -35 -20 -37 -28 -16 -40 129 -327 164 -327 5 0
6 22 3 48 l-4 48 74 0 c65 -1 80 2 116 27 55 36 55 61 0 87 -24 11 -77 46
-118 76 -105 78 -145 92 -198 69z"/>
<path d="M10406 10870 c-35 -22 -58 -62 -50 -83 3 -8 40 -30 81 -48 42 -18 97
-49 122 -69 25 -20 71 -50 101 -67 30 -18 87 -59 127 -93 61 -52 77 -61 105
-58 27 2 36 10 52 41 39 81 -11 155 -154 227 -45 22 -102 56 -128 74 -67 48
-167 96 -199 96 -15 0 -41 -9 -57 -20z"/>
<path d="M4340 10767 c-121 -103 -112 -83 -102 -243 10 -145 20 -181 54 -203
11 -7 67 -21 123 -31 56 -10 131 -30 167 -44 73 -29 88 -32 88 -13 0 19 -53
66 -146 131 -98 67 -113 83 -90 92 17 6 38 3 186 -31 63 -15 84 -16 132 -6 43
9 59 17 64 33 8 27 -4 37 -71 54 -64 17 -169 65 -201 92 -37 31 -56 71 -73
150 -21 102 -33 103 -131 19z"/>
<path d="M10236 10667 c-21 -43 -36 -81 -33 -83 9 -9 79 125 75 143 -2 11 -18
-12 -42 -60z"/>
<path d="M10181 10544 c0 -11 3 -14 6 -6 3 7 2 16 -1 19 -3 4 -6 -2 -5 -13z"/>
<path d="M3835 10418 c-56 -51 -103 -111 -139 -178 -10 -19 -48 -77 -85 -128
-36 -52 -83 -119 -103 -150 -21 -31 -56 -75 -78 -98 l-41 -40 9 -59 c10 -61 9
-67 -36 -227 l-19 -68 22 6 c41 10 50 -18 30 -94 -9 -37 -22 -89 -27 -117 -12
-62 -6 -232 11 -262 27 -51 100 -33 149 37 34 49 48 55 81 33 45 -29 51 -44
35 -81 -23 -55 -143 -191 -219 -247 -39 -29 -77 -60 -85 -70 -14 -16 -27 -191
-32 -405 -2 -97 18 -472 27 -492 21 -52 94 7 198 160 243 357 283 403 389 454
56 27 105 40 207 57 74 12 141 27 148 33 31 26 -5 121 -52 138 -31 11 -313
-80 -435 -141 -63 -31 -226 -162 -263 -211 -14 -18 -34 -52 -46 -74 -39 -79
-70 -89 -85 -29 -8 32 30 248 53 301 25 55 125 189 211 279 36 39 88 96 114
127 64 77 117 102 186 90 43 -8 53 -7 57 6 9 21 -7 41 -71 92 -70 55 -96 94
-96 143 0 34 27 78 48 77 16 -1 52 -27 112 -80 73 -65 81 -68 140 -69 54 -1
90 21 90 53 0 19 -7 25 -33 30 -42 8 -175 95 -216 141 -54 62 -34 99 64 115
44 7 67 18 102 47 24 21 67 55 96 75 29 21 76 58 104 83 62 54 83 109 83 216
0 92 13 106 113 123 43 8 81 16 83 19 9 9 -14 44 -33 52 -10 3 -54 13 -98 21
-148 26 -265 53 -296 68 l-31 16 7 -56 c4 -31 13 -74 21 -96 18 -53 18 -132
-2 -198 -24 -80 -113 -169 -224 -224 -47 -23 -103 -53 -125 -67 -45 -29 -152
-59 -211 -59 -75 0 -93 28 -113 180 -15 115 -4 151 67 224 33 33 73 81 89 106
15 25 56 85 91 132 56 78 70 91 129 119 36 17 89 34 117 38 47 5 51 8 54 34 5
42 -22 75 -82 101 -29 13 -57 29 -60 35 -14 22 -46 10 -101 -41z m41 -971 c38
-33 27 -64 -43 -124 -64 -55 -246 -155 -267 -147 -19 7 -26 50 -15 89 17 60
130 151 238 190 50 19 56 18 87 -8z"/>
<path d="M4150 10238 c0 -9 7 -22 17 -29 15 -13 15 -12 3 11 -17 34 -20 36
-20 18z"/>
<path d="M3247 9338 c-23 -52 -21 -70 4 -31 11 18 19 40 16 50 -3 13 -8 8 -20
-19z"/>
<path d="M10180 9226 c-9 -9 -286 -35 -442 -42 l-157 -7 -44 -51 c-24 -28 -51
-62 -60 -76 -35 -55 -151 -362 -184 -489 -31 -122 -34 -146 -30 -236 4 -99 39
-234 62 -242 31 -10 84 144 120 351 19 107 35 152 98 266 72 130 139 197 242
239 76 32 88 34 243 40 l164 6 38 42 c47 50 59 99 39 158 -12 35 -18 40 -49
43 -20 2 -38 1 -40 -2z"/>
<path d="M9935 8316 c-78 -20 -117 -39 -300 -151 -200 -122 -305 -212 -359
-309 -42 -75 -77 -106 -118 -106 -55 0 -93 28 -153 113 -88 125 -100 134 -190
163 -63 20 -92 25 -136 20 -76 -7 -148 -35 -171 -67 -24 -32 -34 -99 -19 -127
6 -12 49 -46 94 -76 45 -30 115 -85 156 -122 l75 -67 125 7 c69 3 147 9 172
12 94 13 103 -21 97 -382 -4 -314 -16 -342 -114 -267 -68 52 -157 108 -234
146 -62 30 -70 32 -182 32 -103 0 -120 -2 -145 -21 -55 -41 -43 -113 32 -189
48 -48 65 -57 152 -85 135 -44 254 -51 351 -21 39 11 77 19 85 15 21 -8 36
-45 77 -199 67 -253 124 -315 181 -198 43 88 34 252 -19 362 -25 52 -27 65
-26 181 1 149 24 267 57 298 13 12 48 25 87 32 125 22 226 52 294 88 58 30 78
48 127 114 124 167 90 224 -51 88 -83 -80 -175 -119 -340 -146 -86 -14 -98
-14 -136 1 -54 21 -69 59 -60 154 13 144 62 190 426 398 239 136 269 152 303
158 41 8 66 38 74 91 9 56 -15 74 -96 73 -36 0 -88 -6 -116 -13z m-1110 -437
c48 -12 135 -80 135 -105 0 -22 -86 -57 -124 -51 -49 8 -138 44 -189 77 -55
34 -62 63 -19 78 37 14 144 14 197 1z"/>
<path d="M3920 8023 c-34 -6 -78 -50 -100 -100 -10 -24 -23 -43 -28 -43 -5 0
-15 -26 -22 -57 -24 -112 -51 -146 -183 -230 -132 -84 -163 -97 -247 -99 -72
-3 -75 -3 -82 -31 -11 -38 -13 -252 -4 -281 12 -35 37 -23 64 30 20 39 41 58
121 110 53 34 120 80 149 102 55 41 98 50 126 27 8 -7 27 -43 41 -81 40 -105
69 -103 105 5 12 35 34 81 49 103 33 45 125 113 226 166 87 46 124 81 107 98
-9 9 -27 9 -78 -1 -73 -13 -148 -47 -208 -94 -47 -37 -57 -32 -98 43 -24 44
-29 64 -25 98 6 57 26 76 97 96 47 13 81 15 159 10 123 -8 168 -1 182 30 25
54 -20 80 -161 91 -152 12 -165 12 -190 8z"/>
<path d="M4185 7325 c-45 -28 -170 -163 -221 -239 -19 -28 -50 -70 -69 -93
-25 -32 -47 -84 -84 -199 -28 -86 -51 -172 -51 -192 0 -20 16 -96 36 -170 19
-73 38 -168 42 -210 6 -71 9 -77 29 -77 17 0 31 15 55 55 25 41 60 75 144 140
160 122 215 172 217 195 2 22 2 22 -149 9 -64 -5 -87 -3 -111 10 -45 23 -84
108 -91 196 -4 64 -2 73 23 110 16 23 60 61 105 89 181 117 297 293 250 382
-15 27 -75 25 -125 -6z"/>
<path d="M3440 7098 c-75 -16 -79 -27 -35 -100 l38 -63 -12 -60 c-18 -92 -70
-240 -98 -282 -14 -21 -39 -57 -55 -80 -84 -117 63 -111 181 8 54 54 171 316
171 384 0 49 -38 145 -71 177 -29 30 -46 32 -119 16z"/>
<path d="M10164 6961 c-17 -11 -63 -57 -101 -103 -194 -231 -411 -407 -629
-510 l-84 -39 0 -39 c0 -59 8 -70 47 -70 88 0 509 244 629 364 62 62 151 194
176 258 21 56 25 158 6 158 -7 0 -27 -9 -44 -19z"/>
<path d="M3366 6248 c-23 -32 -20 -51 15 -116 42 -79 38 -143 -14 -227 -41
-67 -46 -103 -19 -128 34 -31 55 -19 152 79 52 52 123 118 156 145 34 27 65
56 68 65 11 28 -22 71 -96 126 -93 68 -116 78 -188 78 -49 0 -61 -4 -74 -22z"/>
<path d="M8493 6159 c-7 -7 -13 -27 -13 -43 0 -25 20 -52 106 -144 58 -62 127
-125 152 -140 46 -26 50 -27 212 -27 l166 0 83 50 c86 52 191 151 191 181 0
15 -6 16 -57 8 -79 -12 -281 -9 -373 5 -93 14 -229 55 -294 88 -58 30 -154 42
-173 22z"/>
<path d="M9980 6058 c-30 -18 -83 -60 -117 -94 -54 -55 -63 -61 -80 -50 -23
17 -107 44 -158 52 -53 8 -73 -14 -91 -100 -24 -114 -64 -186 -151 -274 -92
-93 -143 -129 -239 -170 -114 -48 -225 -72 -335 -72 -104 0 -117 -7 -100 -53
13 -34 41 -54 100 -71 113 -33 298 -8 432 60 147 73 203 117 264 203 65 93
116 141 150 141 25 0 65 31 65 49 0 5 15 15 34 22 40 15 52 36 61 112 7 55 8
57 59 85 63 37 190 155 184 173 -7 22 -21 20 -78 -13z"/>
<path d="M4342 6020 c-37 -31 -125 -44 -275 -43 -167 3 -164 4 -221 -138 -53
-134 -87 -199 -116 -220 -19 -14 -53 -20 -138 -25 -98 -6 -114 -10 -123 -27
-12 -22 -4 -78 18 -120 13 -27 18 -29 54 -24 21 3 75 26 118 51 44 25 87 46
95 46 21 0 30 -20 61 -137 18 -64 35 -109 49 -122 28 -26 200 -116 281 -146
71 -27 118 -31 162 -14 35 13 43 25 43 70 0 71 -66 118 -274 190 -60 21 -118
46 -129 56 -27 25 -67 112 -67 148 0 44 32 105 75 147 27 26 69 49 134 74 251
97 311 139 311 215 0 45 -19 51 -58 19z"/>
<path d="M10288 5733 c-8 -10 -30 -45 -49 -78 -20 -33 -65 -96 -101 -141 -76
-94 -139 -190 -193 -292 -21 -40 -46 -77 -57 -83 -12 -7 -38 -6 -79 2 -76 15
-167 7 -221 -20 -24 -12 -86 -58 -138 -102 -52 -44 -125 -100 -162 -124 -98
-65 -144 -158 -119 -243 13 -43 76 -138 97 -146 23 -9 140 18 204 47 61 27
210 166 270 252 22 31 44 51 59 53 31 5 83 -46 127 -124 32 -57 46 -104 89
-294 38 -170 97 -240 202 -240 48 0 70 14 94 62 25 48 114 186 177 273 24 33
73 84 110 113 165 132 262 278 262 394 0 46 -5 62 -26 87 -24 29 -31 31 -88
31 -52 0 -66 -4 -84 -23 -12 -13 -22 -36 -22 -53 0 -16 -9 -43 -19 -61 -28
-44 -163 -137 -246 -169 -85 -32 -115 -50 -115 -68 0 -21 27 -28 130 -32 52
-2 96 -6 98 -9 6 -14 -1 -26 -43 -71 -25 -27 -59 -71 -74 -99 -52 -91 -121
-134 -121 -75 0 11 -17 57 -38 102 -40 85 -54 101 -171 191 -66 51 -121 126
-121 165 0 39 69 160 109 191 20 15 58 40 84 56 77 44 206 186 270 296 49 83
47 212 -4 239 -28 16 -75 12 -91 -7z m-763 -1004 c10 -16 -34 -59 -83 -81 -67
-30 -88 1 -29 46 53 41 100 55 112 35z"/>
<path d="M11658 5158 c-16 -12 -71 -148 -63 -156 2 -2 12 5 22 15 50 52 86
175 41 141z"/>
<path d="M11527 4993 c-4 -3 -7 -11 -7 -17 0 -6 5 -5 12 2 6 6 9 14 7 17 -3 3
-9 2 -12 -2z"/>
<path d="M11407 4866 c-4 -10 -5 -21 -2 -24 9 -9 17 6 13 25 -3 17 -4 17 -11
-1z"/>
<path d="M9545 4069 c-55 -38 -132 -90 -172 -115 -84 -52 -116 -95 -111 -151
3 -34 8 -41 48 -60 56 -29 124 -30 165 -3 17 11 47 48 67 82 20 35 50 81 66
103 16 22 46 73 67 113 30 59 35 75 25 87 -22 27 -54 16 -155 -56z"/>
<path d="M5360 3609 c-7 -11 -9 -24 -6 -27 48 -54 142 -140 144 -132 2 6 -2
33 -8 61 -22 89 -103 150 -130 98z"/>
<path d="M2534 12456 c-17 -8 -75 -46 -128 -86 -53 -39 -143 -98 -200 -131
-108 -62 -177 -125 -202 -184 -19 -46 -18 -55 7 -55 14 0 47 26 88 68 36 37
95 87 131 111 36 24 111 75 167 113 98 66 173 137 173 165 0 15 3 16 -36 -1z"/>
<path d="M1485 10796 c-111 -19 -294 -86 -234 -86 44 0 264 45 314 65 33 12
67 25 75 28 28 10 -85 4 -155 -7z"/>
<path d="M724 10620 c-31 -12 -37 -27 -15 -33 20 -5 155 24 167 36 10 10 -126
8 -152 -3z"/>
</g>
</svg>
